<svg width="57" height="49" viewBox="0 0 57 49" fill="none" xmlns="http://www.w3.org/2000/svg">
<path d="M37.443 45.1657V40.5733C37.443 38.1374 36.4753 35.8012 34.7528 34.0787C33.0303 32.3562 30.6941 31.3885 28.2582 31.3885H12.1848C9.74883 31.3885 7.41264 32.3562 5.69016 34.0787C3.96768 35.8012 3 38.1374 3 40.5733V45.1657" stroke="white" stroke-width="5.99346" stroke-linecap="round" stroke-linejoin="round"/>
<path d="M20.2219 22.2037C25.2945 22.2037 29.4067 18.0915 29.4067 13.0189C29.4067 7.94628 25.2945 3.83411 20.2219 3.83411C15.1493 3.83411 11.0371 7.94628 11.0371 13.0189C11.0371 18.0915 15.1493 22.2037 20.2219 22.2037Z" stroke="white" stroke-width="5.99346" stroke-linecap="round" stroke-linejoin="round"/>
<path d="M46.6279 15.3149V29.0921" stroke="white" stroke-width="5.99346" stroke-linecap="round" stroke-linejoin="round"/>
<path d="M53.5164 22.204H39.7393" stroke="white" stroke-width="5.99346" stroke-linecap="round" stroke-linejoin="round"/>
</svg>
