<svg width="123" height="106" viewBox="0 0 123 106" fill="none" xmlns="http://www.w3.org/2000/svg">
<path d="M59.3672 100.371L73.6468 105.706L62.1176 99.6985L59.3672 100.371Z" fill="black"/>
<path d="M63.9326 99.4041L72.763 102.703L65.6335 98.9905L63.9326 99.4041Z" fill="black"/>
<path d="M102.454 90.3976L116.729 95.7331L105.205 89.7307L102.454 90.3976Z" fill="black"/>
<path d="M99.001 91.1162L107.831 94.4147L100.702 90.7026L99.001 91.1162Z" fill="black"/>
<path d="M109.682 80.8901C109.682 80.8487 109.677 80.8022 109.672 80.7608L109.661 80.6626C109.651 80.5385 109.635 80.4144 109.62 80.28L109.609 80.1714C109.522 79.4114 109.403 78.6204 109.258 77.8139C108.725 74.8928 108.115 72.7783 107.329 71.1653C107.324 71.1497 107.314 71.1342 107.309 71.1187C107.309 71.1136 107.304 71.1084 107.298 71.1032C106.564 69.6143 105.747 68.6837 105.044 67.9805C104.693 67.6031 104.321 67.2464 103.938 66.9103C103.866 66.8431 103.798 66.7707 103.726 66.6984C100.764 63.6687 96.3018 64.0927 95.0455 64.2891C94.6578 63.9841 93.9753 63.4361 93.3084 62.9036C89.8238 60.1221 87.9316 58.628 87.2853 58.1937C85.3207 56.8805 82.0688 56.4617 80.3058 56.3325C77.4571 56.1205 70.369 56.865 64.8216 57.961C58.8709 59.1398 54.1559 60.6133 50.8005 62.3349C48.3189 63.6119 45.9356 66.8897 44.2812 69.6143C42.8956 69.5109 41.3601 70.1002 40.2796 70.6276C38.9664 71.2738 38.1599 72.3389 37.7566 73.4763C35.4508 74.9549 34.1221 77.4055 34.1221 80.3265C34.1221 83.6715 34.4943 87.0682 35.1819 89.8859C36.2625 94.358 37.5343 95.3713 38.7389 95.7952C38.7906 95.8107 38.8371 95.8314 38.8888 95.8469C39.5454 96.2398 40.3054 96.4208 41.0757 96.3484C41.3653 96.3226 41.6238 96.2915 41.8823 96.2553C42.4923 96.824 43.2575 97.217 44.1881 97.4289C44.7309 97.553 50.025 98.5146 52.8582 99.0265C53.8457 100.536 55.1382 101.358 56.591 101.358C56.6995 101.358 56.8081 101.358 56.9167 101.343C59.8067 101.1 64.5166 100.055 67.0706 99.4556C67.205 99.4246 67.3394 99.3832 67.4687 99.3315C67.722 99.2333 68.1614 99.0213 68.6009 98.6077C71.3669 98.1631 80.5178 96.2192 87.8696 94.6113C100.21 91.9125 103.995 90.9923 105.365 90.5373V90.5476C107.51 89.9996 109.149 88.278 109.553 86.1428C109.832 84.6745 109.878 82.9064 109.687 80.8849L109.682 80.8901Z" fill="black"/>
<path d="M105.365 90.5581C105.365 90.5581 105.334 90.5684 105.313 90.5735L105.365 90.5581Z" fill="black"/>
<path d="M4.03261 54.3317L0 0C0 0 13.7677 11.9893 25.1366 10.4228C36.1746 8.90277 41.4273 7.18115 50.7592 6.4315C50.7592 6.4315 51.4727 18.6224 54.7091 22.1897C57.9455 25.757 56.1205 34.5305 56.1205 34.5305C56.1205 34.5305 42.0736 31.2165 31.9145 34.7425C21.7554 38.2685 16.6009 54.5023 4.03261 54.3317Z" fill="black"/>
<path d="M42.1049 19.1757L41.7998 14.988C39.8714 15.4171 37.8034 16.0014 35.4355 16.689L35.7509 21.0163C38.1084 20.2666 40.1661 19.6359 42.1049 19.1757Z" fill="white"/>
<path d="M26.8225 23.8287C27.6601 23.5806 28.4666 23.3324 29.2369 23.0946L28.9061 18.5657C28.296 18.7363 27.6704 18.9069 27.0293 19.0775C25.499 19.4911 23.9894 19.7341 22.5107 19.8427L22.8623 24.6611C24.16 24.5009 25.4835 24.232 26.8225 23.8287Z" fill="white"/>
<path d="M17.0458 36.335L16.6528 30.9788C14.3108 30.8754 12.0981 30.4825 10.0869 29.9448L10.5057 35.6939C12.5323 36.1127 14.7348 36.3712 17.0406 36.335H17.0458Z" fill="white"/>
<path d="M16.1922 24.6196L15.8148 19.4703C13.39 19.0308 11.1514 18.3122 9.18164 17.5005L9.57973 22.991C11.565 23.7045 13.7933 24.3042 16.187 24.6196H16.1922Z" fill="white"/>
<path d="M36.1074 25.8967L36.428 30.3015C38.7338 29.3761 40.7656 28.6316 42.7561 28.1094L42.4407 23.7925C40.4813 24.3095 38.4391 25.0281 36.1074 25.9018V25.8967Z" fill="white"/>
<path d="M3.3916 6.60722L4.01717 14.8741C5.38206 15.7064 7.13469 16.6474 9.18202 17.4953L8.63917 10.0298C6.30749 8.76829 4.50315 7.47578 3.3916 6.60205V6.60722Z" fill="white"/>
<path d="M35.4351 16.6889L35.0783 11.8032C33.1189 12.2582 30.9578 12.7648 28.5176 13.287L28.9002 18.5656C31.3404 17.8883 33.486 17.2576 35.4299 16.6941L35.4351 16.6889Z" fill="white"/>
<path d="M48.4072 14.1815L48.0763 9.62671C45.9514 9.64222 43.8369 9.92657 41.4639 10.3867L41.7999 14.988C44.1057 14.4762 46.2151 14.1763 48.4072 14.1763V14.1815Z" fill="white"/>
<path d="M22.5103 19.8425L22.076 13.9074C19.6823 13.8246 17.4178 13.411 15.3291 12.8062L15.8151 19.4703C17.9244 19.8477 20.1734 20.0132 22.5103 19.8425Z" fill="white"/>
<path d="M4.45703 20.6956L5.02573 28.1869C6.48885 28.8177 8.20012 29.4484 10.0923 29.9499L9.58569 22.991C7.61074 22.2828 5.87362 21.4607 4.45703 20.6956Z" fill="white"/>
<path d="M5.39258 33.4033L5.96128 40.8947C7.42439 41.5254 9.13567 42.1562 11.0279 42.6576L10.5212 35.6988C8.54629 34.9905 6.80916 34.1685 5.39258 33.4033Z" fill="white"/>
<path d="M36.1073 25.8968L35.7505 21.0215C33.8118 21.6367 31.6766 22.3398 29.2363 23.0947L29.6189 28.3577C32.0592 27.4478 34.1789 26.6154 36.1073 25.8968Z" fill="white"/>
<path d="M22.8617 24.661C20.5455 24.9505 18.3069 24.8936 16.1924 24.6196L16.6577 30.9839C18.7826 31.077 21.0108 30.9322 23.2856 30.4411L22.8617 24.661Z" fill="white"/>
<path d="M49.0427 22.8568L48.7118 18.3279C46.4835 18.3279 44.3793 18.6381 42.1045 19.1758L42.4405 23.7874C44.6481 23.2032 46.7472 22.8775 49.0375 22.8568H49.0427Z" fill="white"/>
<path d="M103.173 28.2126C102.759 28.2126 102.299 28.2592 101.798 28.3471L97.491 29.1071L95.3145 39.84L99.6211 39.08C102.837 38.5113 104.869 36.919 105.711 32.907C106.378 29.5724 105.427 28.2126 103.173 28.2126Z" fill="black"/>
<path d="M120.244 16.5804C117.922 13.742 114.376 12.2996 109.702 12.2996C107.996 12.2996 106.14 12.4805 104.02 12.8528L78.7751 17.3042L76.3762 11.3069L86.4423 0.367188L48.5512 6.64876L44.9426 24.2372C43.6345 23.9683 41.9129 23.6995 39.726 23.6995C37.8079 23.6995 35.7141 23.9063 33.3204 24.325C25.0276 25.7882 18.2032 29.433 13.0436 35.1666C8.74727 39.9333 5.7073 46.158 4.25453 53.1582C2.62081 61.1873 3.58243 67.4378 7.11355 71.7548C9.18155 74.2829 13.178 77.297 20.4884 77.297C22.3289 77.297 24.3349 77.1057 26.4546 76.7335C30.2649 76.0614 33.2635 75.2083 36.2156 73.921L121.8 58.8297L114.443 46.9749C118.3 43.3765 120.916 38.3565 122.25 31.9818V31.9663L122.255 31.9508C123.155 27.5098 123.925 21.0834 120.239 16.5752L120.244 16.5804Z" fill="black"/>
<path d="M117.194 30.9322C119.091 21.5538 116.76 17.4695 109.698 17.4695C108.291 17.4695 106.699 17.6298 104.915 17.9451L88.3764 20.861L80.6007 58.7676L79.1221 59.8895L80.1561 60.9235L91.3957 58.9433L93.3241 49.4926L96.3382 49.1617L100.412 55.4484L99.4661 56.3015L101.632 57.3355L113.373 55.0658L107.531 45.6512C112.484 42.8956 115.7 38.0203 117.184 30.927L117.194 30.9322ZM105.706 32.9071C104.864 36.9191 102.837 38.5114 99.616 39.0801L95.3094 39.8401L97.486 29.1072L101.793 28.3472C102.294 28.2593 102.754 28.2128 103.168 28.2128C105.417 28.2128 106.373 29.5673 105.706 32.9071Z" fill="#F20C39"/>
<path d="M72.4371 23.6734L71.4031 22.6394L70.6999 23.1823L70.9067 23.9422L60.1583 25.8396L39.9332 65.7522L37.6377 67.2101L38.6717 68.2441L51.2969 66.0158L53.8198 60.3236L64.6148 58.4211L64.7648 61.5645C64.377 61.9936 63.829 62.5881 63.829 62.5881L64.863 63.6221L77.4365 61.4042L72.4371 23.6682V23.6734ZM57.93 50.8367L63.5757 38.0564L64.1702 49.7355L57.93 50.8367Z" fill="#F20C39"/>
<path d="M48.0703 21.8589L51.71 21.2178L52.2684 18.457L53.9848 18.1572C57.3815 17.5575 59.2737 15.9599 60.0596 12.1496C60.6955 9.02177 59.889 7.78613 57.6814 7.78613C57.2109 7.78613 56.6836 7.843 56.089 7.9464L50.738 8.89252L48.0807 21.8589H48.0703ZM53.6798 11.5602L55.0757 11.3121C55.2515 11.2811 55.4117 11.2656 55.5565 11.2656C56.2648 11.2656 56.5698 11.674 56.3423 12.8062C56.0528 14.1866 55.3962 14.7191 54.357 14.9052L52.9611 15.1534L53.6798 11.5654V11.5602Z" fill="#F20C39"/>
<path d="M63.1153 19.2066L65.7727 6.24023L62.1381 6.88132L59.4756 19.8477L63.1153 19.2066Z" fill="#F20C39"/>
<path d="M70.7569 5.36109L66.6881 6.07972L69.056 11.7306L63.917 19.0616L68.0013 18.343L70.6432 14.3052L71.7806 17.6761L75.8494 16.9574L73.4453 10.9602L78.4137 4.01172L74.3449 4.72518L71.8633 8.41657L70.7569 5.36109Z" fill="#F20C39"/>
<path d="M43.2371 28.3472L42.4203 29.0555C41.5982 28.9417 40.7193 28.8745 39.7267 28.8745C38.2222 28.8745 36.4489 29.0296 34.2206 29.4225C18.8708 32.1264 11.6431 43.0093 9.31664 54.2128C7.31584 64.041 9.55446 72.132 20.489 72.132C22.009 72.132 23.6945 71.9769 25.5557 71.646C30.4051 70.793 33.3779 69.6711 36.299 68.1666L38.6255 56.8133L37.5915 55.7793L36.1387 56.7667L36.2628 57.8214C34.262 58.5711 31.9458 59.2277 29.7641 59.6154C28.6525 59.8119 27.6185 59.9153 26.6724 59.9153C22.1745 59.9153 19.698 57.6146 20.8044 52.1861C22.1434 45.7598 27.2411 41.9391 33.6261 40.8172C35.4252 40.5019 37.2244 40.3468 38.8271 40.3468C40.0007 40.3468 41.0657 40.4295 41.9446 40.5898L44.2711 29.3863L43.2371 28.3523V28.3472Z" fill="#F20C39"/>
<path d="M28.7304 58.5815C31.8479 58.0335 35.2653 56.9323 37.5918 55.7794L35.2653 67.1327C32.3443 68.6372 29.3715 69.7539 24.522 70.6121C9.22395 73.3109 6.00303 64.3719 8.28301 53.1789C10.6095 41.9754 17.8372 31.0977 33.187 28.3886C38.0365 27.5356 40.7145 27.8044 43.2375 28.3473L40.911 39.5507C38.8326 39.1733 35.7099 39.2302 32.5924 39.7782C26.2075 40.9052 21.1046 44.7259 19.7708 51.147C18.4318 57.7181 22.3455 59.7034 28.7304 58.5764V58.5815Z" fill="white"/>
<path d="M52.7858 59.2896L50.2629 64.9818L37.6377 67.2101L59.1243 24.8056L71.4031 22.6394L76.4025 60.3753L63.829 62.5933L63.5808 57.3871L52.7858 59.2896ZM56.896 49.8027L63.1362 48.7014L62.5417 37.0224L56.896 49.8027Z" fill="white"/>
<path d="M112.345 54.0371L99.4713 56.3067L94.172 48.1329L92.2901 48.4638L90.3617 57.9146L79.1221 59.8947L87.3424 19.8271L103.881 16.9112C114.625 15.019 118.435 18.6535 116.16 29.8983C114.676 36.9916 111.455 41.8669 106.508 44.6225L112.35 54.0371H112.345ZM96.452 28.0733L94.2754 38.8062L98.582 38.0462C101.798 37.4775 103.83 35.8852 104.672 31.8732C105.463 27.9233 103.98 26.7498 100.759 27.3133L96.452 28.0733Z" fill="white"/>
<path d="M56.6531 98.2357C59.0469 98.0341 63.1932 97.1655 66.3521 96.421C66.3521 96.421 67.293 96.0746 66.6985 92.7348C66.1091 89.3898 62.5366 83.8734 62.5366 83.8734L58.0594 81.8261C58.0594 81.8261 54.4869 80.668 52.6774 81.1746C52.6774 81.1746 52.1862 87.7923 52.1656 88.4954C52.1242 89.8758 54.5489 96.1625 54.5489 96.1625C54.5489 96.1625 54.6058 96.1108 54.8436 96.0643C55.0401 96.5865 55.8156 98.3029 56.648 98.2305L56.6531 98.2357Z" fill="black"/>
<path d="M40.7807 93.2466C41.9129 93.1432 42.4092 92.983 45.5526 92.4763C45.5526 92.4763 44.8857 92.9881 44.2963 89.6483C43.7069 86.3085 42.311 82.9686 42.311 82.9686L39.3486 79.4944L37.5391 80.0011C37.5391 80.0011 37.7924 84.7781 37.8182 85.4761C37.9423 89.2088 39.7673 92.864 39.7673 92.864C39.7673 92.864 39.9328 92.9054 40.1706 92.8589C40.3722 93.1898 40.6049 93.2673 40.7755 93.2518L40.7807 93.2466Z" fill="black"/>
<path d="M67.4474 95.604C68.0057 95.8521 103.803 88.0299 104.475 87.5646C105.147 87.0993 105.044 86.9132 105.044 86.9132L104.625 85.052L102.79 83.2373H96.5597C96.5597 83.2373 89.0529 86.2566 88.8461 86.3031C88.6393 86.3496 76.1795 87.7456 76.0451 87.7456C75.9107 87.7456 69.7015 89.7464 69.7015 89.7464C69.7015 89.7464 66.889 95.3558 67.4474 95.604Z" fill="black"/>
<path d="M45.0981 74.593C45.0981 74.593 48.9808 66.7863 52.2327 65.1112C55.4846 63.4361 60.0394 62.0919 65.4317 61.0217C70.8241 59.9515 77.6071 59.2536 80.0732 59.4397C82.5393 59.6258 84.5815 60.1376 85.5586 60.7891C86.5358 61.4405 92.7605 66.4761 93.4584 67.0034C94.1564 67.5308 94.6217 67.5308 95.4127 67.3912C96.2037 67.2516 99.5487 66.8793 101.503 68.8801C103.457 70.8809 104.925 71.3721 106.197 78.3774C106.849 81.9706 106.745 84.2247 106.492 85.5689C106.306 86.5461 105.546 87.3009 104.579 87.5387C104.543 87.5491 104.512 87.5542 104.486 87.5646C104.486 87.5646 104.31 85.1915 103.431 84.4936C102.547 83.7956 101.177 83.7749 99.1092 84.3075C97.0412 84.84 74.0347 89.6998 74.0347 89.6998C74.0347 89.6998 69.1645 90.2685 68.7354 94.2752C68.694 94.6475 68.7147 95.3765 67.7634 95.5884C66.8121 95.8004 64.3667 96.2347 63.6481 96.1623C62.9295 96.0899 61.5801 95.6298 60.3703 93.0499C59.1605 90.4701 58.1162 87.7972 57.1856 85.4759C56.255 83.1545 55.1176 81.2675 54.4661 81.3864C53.8147 81.5053 53.0702 82.0585 52.7704 84.08C52.5222 85.7344 52.7911 89.3327 53.396 92.0263C54.0008 94.7199 54.5592 96.1726 54.5592 96.1726C54.5592 96.1726 45.4962 94.5389 44.8913 94.3993C44.2864 94.2597 43.728 94.0529 43.4023 92.7501C43.0766 91.4472 41.3963 85.8688 40.8949 84.3126C39.9436 81.3605 39.0337 80.0835 38.7131 79.8974C38.3926 79.7113 37.7825 79.9181 37.7825 81.4329C37.7825 82.9477 38.2478 89.281 39.7833 92.8638C38.9923 92.5846 37.25 87.4508 37.25 80.3369C37.25 77.8656 38.6201 76.2681 40.595 75.5495C40.595 75.5495 40.3934 74.0605 41.6652 73.4349C42.937 72.8093 43.7797 72.6904 44.1054 72.737C44.4311 72.7835 44.7879 73.528 45.1033 74.5982L45.0981 74.593Z" fill="#F20C39"/>
<path d="M72.571 62.3712C72.571 62.3712 81.5461 60.8668 84.2811 60.8357C86.2353 60.8151 93.8249 68.1772 91.4777 68.7355C90.0508 69.0767 82.332 70.8707 72.4779 72.6389C72.4779 72.6389 69.0088 73.4299 67.8456 72.4528C66.6823 71.4756 59.7132 66.3625 59.7132 66.3625C59.7132 66.3625 58.7205 65.4939 60.0699 65.1217C61.4193 64.7494 65.3536 63.6792 72.571 62.3661V62.3712Z" fill="black"/>
<path d="M77.3743 84.3231C77.3743 84.3231 77.7207 80.8385 80.7917 80.2336C83.8575 79.6287 92.3622 77.9122 92.3622 77.9122C92.3622 77.9122 95.5934 77.2608 97.0772 80.6989C97.0772 80.6989 95.4745 79.1168 94.1252 78.9773C92.7758 78.8377 87.8022 79.9441 87.8022 79.9441C87.8022 79.9441 81.3449 81.1849 80.5746 81.6295C79.8094 82.0689 78.946 82.0948 77.3691 84.3231H77.3743Z" fill="black"/>
<path d="M58.7002 79.5409L59.3981 80.8903L61.0112 80.7559L64.4544 80.3267L67.6081 79.5409L68.5646 79.0704L68.6421 78.2226L67.8046 77.8245H64.3562L59.486 78.4759L58.4365 78.9153L58.7002 79.5409Z" fill="white"/>
<path d="M103.711 71.6723L103.038 72.4995L100.386 73.0475L98.918 73.337L98.127 72.7993L98.9076 71.9825L102.697 70.5969L103.711 71.6723Z" fill="white"/>
<path d="M101.818 69.2061C101.818 69.2061 99.7035 70.3435 98.3334 71.5326C98.3334 71.5326 98.1008 71.7394 96.9375 71.9255C95.7743 72.1116 86.0185 74.2261 86.0185 74.2261L71.1753 77.323C71.1753 77.323 69.2831 77.8193 67.5201 77.5091C65.752 77.1989 64.6404 76.4544 60.9542 77.4781C57.268 78.5017 57.9194 79.8615 57.9194 79.8615L59.0051 81.3194C59.0051 81.3194 59.4084 81.7537 60.2459 81.6296C61.0835 81.5055 68.885 80.1975 68.885 80.1975C68.885 80.1975 70.2758 80.0166 70.7772 78.967C70.7772 78.967 70.891 78.5328 71.439 78.4087C72.0646 78.2691 82.5597 76.5268 86.3442 75.6686C89.715 74.9034 96.1 73.5695 97.47 73.2852C97.6303 73.2542 97.7906 73.3007 97.9043 73.4093C98.0801 73.5799 98.3644 73.8177 98.6385 73.9004C99.0779 74.04 102.656 73.7298 104.527 72.5355C104.527 72.5355 103.819 70.7726 101.823 69.2061H101.818ZM68.5593 78.8119C68.4352 78.9826 68.001 79.0911 68.001 79.0911C68.001 79.0911 60.3804 80.6576 59.9926 80.5181C59.6048 80.3785 59.3619 79.9287 59.3619 79.9287C58.9172 79.2307 60.0598 79.0187 60.4114 78.967C62.3191 78.6982 67.5512 78.2071 68.0785 78.1915C68.6058 78.176 68.6834 78.6413 68.5593 78.8119ZM102.469 72.2926C101.678 72.5097 99.5587 72.9905 99.1865 73.0681C98.8142 73.1456 98.6695 73.0681 98.5661 72.9491C98.504 72.8819 98.3748 72.6545 98.5764 72.4838C98.778 72.3132 99.9568 71.8272 99.9568 71.8272C99.9568 71.8272 102.02 70.9587 102.511 70.9277C103.007 70.8967 103.255 71.2844 103.271 71.5481C103.286 71.8117 103.255 72.0754 102.464 72.2926H102.469Z" fill="black"/>
<path d="M45.0977 75.291C45.0977 75.291 49.9316 75.291 51.6015 75.1049C53.2714 74.9188 56.3786 75.5495 58.3639 71.0826C58.5604 70.638 58.6534 69.604 57.8728 68.9061C57.0921 68.2081 54.5071 66.5485 54.5071 66.5485C54.5071 66.5485 53.6954 66.0367 52.7183 66.1556C51.7411 66.2745 50.0712 66.807 48.6753 69.2008C47.2794 71.5945 45.0977 75.291 45.0977 75.291Z" fill="black"/>
<path d="M56.9947 90.3202C57.7289 94.6889 57.2325 97.4496 56.6794 97.4496C55.9969 97.4496 54.8026 95.0456 54.1357 90.6666C53.4688 86.2927 53.9289 83.4699 54.5338 83.5165C54.5338 83.5165 55.8108 83.2683 56.9947 90.3202ZM54.389 82.9478C54.389 82.9478 54.3425 82.9478 54.3218 82.9478C53.3344 83.0977 53.0448 86.5823 53.6756 90.7286C54.2908 94.7871 55.5575 97.9718 56.5398 97.9718C56.5604 97.9718 56.5863 97.9718 56.607 97.9718C57.5945 97.8219 57.884 94.3373 57.2532 90.1909C56.638 86.1325 55.3713 82.9478 54.389 82.9478Z" fill="white"/>
<path d="M40.5532 86.8048C41.2408 90.3721 41.096 92.6676 40.7651 92.6935C40.3567 92.7193 39.4985 90.7909 38.8522 87.2081C38.206 83.6304 38.3249 81.2884 38.6919 81.2988C38.6919 81.2988 39.4468 81.0403 40.5583 86.8048H40.5532ZM38.5679 80.8386C38.5679 80.8386 38.542 80.8386 38.5265 80.8438C37.9423 81.0092 37.963 83.8889 38.573 87.2856C39.1728 90.6048 40.1137 93.1794 40.7083 93.1381C40.7238 93.1381 40.7341 93.1381 40.7496 93.1329C41.3338 92.9675 41.3131 90.0878 40.7031 86.6911C40.1034 83.3719 39.1624 80.7973 38.5679 80.8386Z" fill="white"/>
<path d="M44.208 72.9905C44.0684 72.8767 43.9857 72.8302 43.4894 72.9439C42.9931 73.0577 41.9229 73.4454 41.5816 73.6884C41.2404 73.9314 40.5787 74.7845 41.106 75.7357C41.2249 75.9477 41.4886 76.1183 41.6644 76.1183C41.8401 76.1183 44.5596 75.167 44.5596 75.167C44.5596 75.167 44.9422 75.0171 44.8594 74.5932C44.7612 74.0555 44.3166 73.0835 44.208 72.9956V72.9905Z" fill="black"/>
<path d="M40.8691 76.1184C40.8691 76.1184 41.2414 76.5889 42.0686 76.3666C42.8958 76.1443 44.6794 75.498 44.6794 75.498L42.6838 76.9457C42.3323 77.2042 41.8463 77.1783 41.5206 76.8836C41.2672 76.6561 40.9984 76.3769 40.8691 76.1184Z" fill="black"/>
<path d="M54.4609 75.291C54.4609 75.291 61.6938 72.6543 67.6031 74.8154L59.0261 68.3425C59.0261 68.3425 61.032 72.7112 54.4661 75.2962L54.4609 75.291Z" fill="black"/>
<path d="M44.8701 92.2589L50.4382 92.931C50.826 92.9775 51.2086 92.8431 51.4774 92.5639C51.7514 92.2848 51.8703 91.8918 51.8083 91.5093C51.6015 90.2271 51.193 87.0786 51.5756 83.7439L50.9449 91.3645C50.9139 91.7212 50.6243 92.0004 50.2728 92.0159L44.8701 92.2641V92.2589Z" fill="black"/>
<path d="M41.3857 81.9916C41.3185 81.4849 41.3391 80.3992 42.0371 80.12C42.735 79.8409 52.2737 80.4561 52.2737 80.4561C52.2737 80.4561 53.1113 80.5491 52.982 81.5004C52.982 81.5004 52.8424 82.643 52.6511 82.8912C52.7752 82.5344 53.1475 80.8025 52.3564 80.7042C50.428 80.4561 44.5446 80.2545 42.7609 80.2648C41.701 80.27 41.5408 81.5987 41.3908 81.9916H41.3857Z" fill="black"/>
<path d="M62.3447 91.5923C62.3447 91.5923 62.4378 90.1654 64.299 89.5553C66.1602 88.9452 70.6685 88.0146 70.6685 88.0146C70.6685 88.0146 62.8617 89.8965 62.3499 91.5923H62.3447Z" fill="black"/>
<path d="M102.222 81.6502L106.508 80.5334L106.57 81.0918C106.57 81.0918 106.016 80.6782 102.222 81.6502Z" fill="black"/>
<path d="M71.5013 93.0397L82.4927 90.615C82.7357 90.5633 82.9477 90.4133 83.0769 90.2065L83.2424 89.9429L72.7989 92.3004C72.3595 92.3986 71.9511 92.6158 71.6202 92.926L71.4961 93.0397H71.5013Z" fill="white"/>
<path d="M102.93 86.107L94.8083 87.9941C94.5653 88.0509 94.312 88.0044 94.1052 87.87L93.8467 87.7045L101.441 85.9881C101.881 85.8899 102.341 85.9106 102.775 86.0501L102.936 86.1018L102.93 86.107Z" fill="white"/>
<path d="M87.2545 90.827C87.2183 90.827 87.1873 90.827 87.1511 90.827C86.4273 90.7598 85.8948 90.0049 85.9723 89.1415C86.0499 88.2781 86.7117 87.6164 87.4303 87.6888C87.787 87.7198 88.1076 87.9162 88.3299 88.2471C88.547 88.5625 88.6453 88.9658 88.6039 89.3742C88.5677 89.7878 88.4023 90.1652 88.1334 90.4392C87.8853 90.6925 87.5699 90.8321 87.2493 90.8321L87.2545 90.827ZM87.3321 88.0403C86.8306 88.0403 86.3911 88.5315 86.3343 89.1674C86.2774 89.8343 86.6548 90.4134 87.1873 90.4599C87.4406 90.4806 87.6836 90.3823 87.8853 90.1755C88.0921 89.9636 88.2265 89.6637 88.2575 89.3328C88.2885 89.0019 88.211 88.6866 88.0404 88.4384C87.8801 88.2006 87.6526 88.061 87.4044 88.0403C87.3838 88.0403 87.3579 88.0403 87.3372 88.0403H87.3321Z" fill="white"/>
<path d="M90.0615 90.1808C90.0305 90.1808 89.9943 90.1808 89.9633 90.1808C89.6117 90.1497 89.2963 89.9585 89.0792 89.6379C88.8672 89.3277 88.7742 88.9348 88.8104 88.5315C88.8879 87.6837 89.5187 87.0374 90.2373 87.1098C90.5888 87.1408 90.9042 87.3321 91.1214 87.6526C91.3333 87.9628 91.4264 88.3558 91.3902 88.759C91.354 89.1623 91.1886 89.5293 90.9301 89.7982C90.6871 90.0464 90.3821 90.1808 90.0667 90.1808H90.0615ZM90.1391 87.4613C89.6531 87.4613 89.224 87.937 89.1723 88.5574C89.1464 88.8779 89.2188 89.1881 89.3842 89.4259C89.5393 89.6534 89.7616 89.793 89.9995 89.8137C90.2373 89.8344 90.4803 89.7361 90.6767 89.5397C90.8784 89.3329 91.0076 89.0434 91.0386 88.7228C91.0645 88.4023 90.9921 88.0921 90.8267 87.8543C90.6716 87.6268 90.4544 87.4872 90.2114 87.4665C90.1908 87.4665 90.1649 87.4665 90.1442 87.4665L90.1391 87.4613Z" fill="white"/>
</svg>
