<svg width="600" height="187" viewBox="0 0 600 187" fill="none" xmlns="http://www.w3.org/2000/svg">
<path d="M106.875 28.5544L124.649 82.9837H182.167L135.634 116.623L153.408 171.052L106.875 137.413L60.3417 171.052L78.1157 116.623L31.5827 82.9837H89.1006L106.875 28.5544Z" fill="#FF0D3C" fill-opacity="0.5"/>
<path d="M221.373 38.8931L214.347 71.7812L243.612 88.5926L210.005 92.1071L202.979 124.995L189.235 94.2792L155.628 97.7938L180.741 75.2957L166.996 44.5797L196.261 61.3911L221.373 38.8931Z" fill="#FF0D3C" fill-opacity="0.5"/>
<path d="M257.422 21.0313L277.389 32.7276L294.738 17.4474L289.729 39.9563L309.695 51.6526L286.633 53.8676L281.623 76.3764L272.379 55.2365L249.316 57.4515L266.666 42.1713L257.422 21.0313Z" fill="#FF0D3C" fill-opacity="0.5"/>
<path d="M434.792 49.9317L420.364 67.9704L433.147 87.1982L411.446 79.1189L397.018 97.1576L398.035 74.1256L376.334 66.0462L398.663 59.891L399.68 36.859L412.463 56.0869L434.792 49.9317Z" fill="#FF0D3C" fill-opacity="0.5"/>
<path d="M582.405 102.282L567.977 120.32L580.76 139.548L559.06 131.469L544.631 149.508L545.648 126.476L523.947 118.396L546.276 112.241L547.293 89.2091L560.076 108.437L582.405 102.282Z" fill="#FF0D3C" fill-opacity="0.5"/>
<path d="M542.518 99.7747L505.077 101.741L495.387 137.778L481.938 102.956L444.497 104.922L473.626 81.4345L460.177 46.6121L491.628 66.9184L520.757 43.4309L511.066 79.4684L542.518 99.7747Z" fill="#FF0D3C" fill-opacity="0.5"/>
<path d="M383.46 23.5873L378.116 30.2687L382.851 37.3906L374.813 34.3981L369.469 41.0795L369.846 32.5486L361.808 29.556L370.078 27.2762L370.455 18.7453L375.19 25.8672L383.46 23.5873Z" fill="#FF0D3C" fill-opacity="0.5"/>
<path d="M558.418 73.2763L550.22 70.7526L545.274 77.7311L545.153 69.1929L536.954 66.6692L545.078 63.9159L544.956 55.3777L550.098 62.2143L558.222 59.4611L553.276 66.4396L558.418 73.2763Z" fill="#FF0D3C" fill-opacity="0.5"/>
<path d="M22.742 96.9643L20.5404 105.218L27.749 109.851L19.1798 110.318L16.9782 118.572L13.8838 110.607L5.31459 111.074L11.9713 105.685L8.87679 97.72L16.0853 102.354L22.742 96.9643Z" fill="#FF0D3C" fill-opacity="0.5"/>
<path d="M322.719 47.524L336.055 55.3356L347.642 45.1303L344.296 60.1635L357.632 67.9751L342.228 69.4544L338.883 84.4876L332.709 70.3687L317.306 71.8481L328.893 61.6428L322.719 47.524Z" fill="#FF0D3C" fill-opacity="0.5"/>
<path d="M15.9488 39.6468L29.2841 47.4584L40.8715 37.2531L37.5257 52.2863L50.861 60.0979L35.4579 61.5773L32.1121 76.6104L25.9383 62.4915L10.5351 63.9709L22.1226 53.7656L15.9488 39.6468Z" fill="#FF0D3C" fill-opacity="0.5"/>
</svg>
